<svg xmlns="http://www.w3.org/2000/svg" width="81.792" height="41.834" viewBox="0 0 81.792 41.834"><g transform="translate(-38.871 -410.42)"><g transform="translate(38.871 410.42)"><path d="M248,133.887H233.633a2.39,2.39,0,0,1-2.111-1.269L217.2,105.634a2.39,2.39,0,0,1,2.111-3.51h14.364a2.39,2.39,0,0,1,2.111,1.269l14.324,26.984A2.39,2.39,0,0,1,248,133.887Z" transform="translate(-216.916 -92.053)" fill="#e6fcff"/><path d="M316.214,133.887H301.85a2.39,2.39,0,0,1-2.111-1.269l-14.324-26.984a2.39,2.39,0,0,1,2.111-3.51H301.89A2.39,2.39,0,0,1,304,103.393l14.324,26.984A2.39,2.39,0,0,1,316.214,133.887Z" transform="translate(-256.377 -92.053)" fill="#e6fcff"/><path d="M253.657,133.887h14.364a2.389,2.389,0,0,0,2.111-1.269l14.324-26.984a2.389,2.389,0,0,0-2.111-3.51H267.981a2.39,2.39,0,0,0-2.111,1.269l-14.324,26.984A2.39,2.39,0,0,0,253.657,133.887Z" transform="translate(-236.785 -92.053)" fill="#ffc400"/><path d="M322.738,120.066h14.4a2.389,2.389,0,0,0,2.126-1.3l19-37.055a2.39,2.39,0,0,0-2.126-3.481H342.213a3.162,3.162,0,0,0-2.814,1.719l-18.788,36.635A2.389,2.389,0,0,0,322.738,120.066Z" transform="translate(-276.747 -78.232)" fill="#ffc400"/></g></g></svg>